# xmcd
#
# Track frame offsets:
#	183
#	6223
#	16245
#	27930
#	38178
#	48358
#	59348
#	69140
#	78435
#	88338
#	101463
#	112705
#	124223
#	135373
#	144298
#	152383
#	158095
#	167270
#	177023
#	188615
#	199120
#	209953
#	221430
#	229898
#	240353
#	250315
#
# Disc length: 3457 seconds
#
# Revision: 0
# Processed by: cddbd v1.4PL0 Copyright (c) Steve Scherf et al.
# Submitted via: EasyCDDAExtractor 5.0.4.1
#
DISCID=490d7f1a
DTITLE=Various Artist - Country Music Originals Vol. 5
DYEAR=1900
DGENRE=Country
TTITLE0=Cash, Johnny - You Tell Me
TTITLE1=Cash, Johnny - Goodbye Little Darling
TTITLE2=Self, Mack - Willie Brown
TTITLE3=Self, Mack - Mad at You
TTITLE4=Cash, Johnny - Straight A's in Love
TTITLE5=Cash, Johnny - I Love You Because
TTITLE6=Cash, Johnny - The Story of a Broken Heart
TTITLE7=Cash, Johnny - Down the Street to 301
TTITLE8=Strength, Bill - Guess I'd Better Go
TTITLE9=Strength, Bill - Senorita
TTITLE10=Cash, Johnny - Mean Eyed Cat
TTITLE11=Cash, Johnny - Port of Lonely Hearts
TTITLE12=Cash, Johnny - Oh Lonesome Me
TTITLE13=Cash, Johnny - Life Goes On
TTITLE14=Cash, Johnny - Sugar Time
TTITLE15=Cash, Johnny - My Treasure
TTITLE16=Cash, Johnny - Blue Train
TTITLE17=Cash, Johnny - Born to Lose
TTITLE18=Houston, David - Miss Brown
TTITLE19=Houston, David - Sherry's Lips
TTITLE20=Cash, Johnny - Belshazzar
TTITLE21=Cash, Johnny - Wide Open Road
TTITLE22=Stinit, Dane - Always on the Go
TTITLE23=Stinit, Dane - Don't Knock What You Don't Understand
TTITLE24=Stinit, Dane - Sweet Country Girl
TTITLE25=Stinit, Dane - That Muddy Ole River
EXTD=
EXTT0=
EXTT1=
EXTT2=
EXTT3=
EXTT4=
EXTT5=
EXTT6=
EXTT7=
EXTT8=
EXTT9=
EXTT10=
EXTT11=
EXTT12=
EXTT13=
EXTT14=
EXTT15=
EXTT16=
EXTT17=
EXTT18=
EXTT19=
EXTT20=
EXTT21=
EXTT22=
EXTT23=
EXTT24=
EXTT25=
PLAYORDER=
